<svg width="16" height="21" viewBox="0 0 16 21" fill="none" xmlns="http://www.w3.org/2000/svg">
<path d="M1.5013 18.0833C1.5013 19.275 2.4763 20.25 3.66797 20.25H12.3346C13.5263 20.25 14.5013 19.275 14.5013 18.0833V7.25C14.5013 6.05833 13.5263 5.08333 12.3346 5.08333H3.66797C2.4763 5.08333 1.5013 6.05833 1.5013 7.25V18.0833ZM14.5013 1.83333H11.793L11.0238 1.06417C10.8288 0.869167 10.5471 0.75 10.2655 0.75H5.73714C5.45547 0.75 5.1738 0.869167 4.9788 1.06417L4.20964 1.83333H1.5013C0.905469 1.83333 0.417969 2.32083 0.417969 2.91667C0.417969 3.5125 0.905469 4 1.5013 4H14.5013C15.0971 4 15.5846 3.5125 15.5846 2.91667C15.5846 2.32083 15.0971 1.83333 14.5013 1.83333Z" fill="white"/>
</svg>
