<svg width="19" height="24" viewBox="0 0 19 24" fill="none" xmlns="http://www.w3.org/2000/svg">
<path d="M2.13301 20.7537C2.13301 22.1633 3.28632 23.3166 4.69592 23.3166H14.9475C16.3571 23.3166 17.5104 22.1633 17.5104 20.7537V7.93919C17.5104 6.5296 16.3571 5.37629 14.9475 5.37629H4.69592C3.28632 5.37629 2.13301 6.5296 2.13301 7.93919V20.7537ZM17.5104 1.53194H14.3068L13.397 0.622109C13.1663 0.391448 12.8331 0.250488 12.5 0.250488H7.14349C6.81031 0.250488 6.47713 0.391448 6.24647 0.622109L5.33664 1.53194H2.13301C1.42822 1.53194 0.851562 2.10859 0.851562 2.81339C0.851562 3.51819 1.42822 4.09484 2.13301 4.09484H17.5104C18.2152 4.09484 18.7919 3.51819 18.7919 2.81339C18.7919 2.10859 18.2152 1.53194 17.5104 1.53194Z" fill="#474A69"/>
</svg>
