<svg width="24" height="24" viewBox="0 0 24 24" fill="none" xmlns="http://www.w3.org/2000/svg">
<path d="M14.6855 11.5123L6.38379 10.0498V20.8566C6.38369 20.974 6.40678 21.0903 6.45173 21.1989C6.49667 21.3074 6.5626 21.4059 6.64573 21.4889C6.72885 21.5719 6.82754 21.6377 6.93613 21.6824C7.04472 21.7272 7.16108 21.7501 7.27854 21.7498H21.6035C21.7211 21.7503 21.8376 21.7276 21.9464 21.6829C22.0552 21.6382 22.154 21.5725 22.2373 21.4895C22.3206 21.4065 22.3867 21.3078 22.4317 21.1992C22.4768 21.0906 22.4999 20.9741 22.4998 20.8566V16.8748L14.6855 11.5123Z" fill="#185C37"/>
<path d="M14.6855 2.25H7.27854C7.16108 2.24971 7.04472 2.2726 6.93613 2.31736C6.82754 2.36213 6.72885 2.42789 6.64573 2.51088C6.5626 2.59386 6.49667 2.69244 6.45173 2.80096C6.40678 2.90947 6.38369 3.0258 6.38379 3.14325V7.125L14.6855 12L19.0813 13.4625L22.4998 12V7.125L14.6855 2.25Z" fill="#21A366"/>
<path d="M6.38379 7.125H14.6855V12H6.38379V7.125Z" fill="#107C41"/>
<path opacity="0.1" d="M12.3253 6.14941H6.38379V18.3369H12.3253C12.562 18.3357 12.7888 18.2413 12.9564 18.0741C13.124 17.9069 13.219 17.6804 13.2208 17.4437V7.04266C13.219 6.80592 13.124 6.57941 12.9564 6.41221C12.7888 6.24501 12.562 6.15059 12.3253 6.14941Z" fill="black"/>
<path opacity="0.2" d="M11.837 6.6377H6.38379V18.8252H11.837C12.0738 18.824 12.3005 18.7296 12.4682 18.5624C12.6358 18.3952 12.7308 18.1687 12.7325 17.9319V7.53095C12.7308 7.2942 12.6358 7.06769 12.4682 6.90049C12.3005 6.73329 12.0738 6.63887 11.837 6.6377Z" fill="black"/>
<path opacity="0.2" d="M11.837 6.6377H6.38379V17.8502H11.837C12.0738 17.849 12.3005 17.7546 12.4682 17.5874C12.6358 17.4202 12.7308 17.1937 12.7325 16.9569V7.53095C12.7308 7.2942 12.6358 7.06769 12.4682 6.90049C12.3005 6.73329 12.0738 6.63887 11.837 6.6377Z" fill="black"/>
<path opacity="0.2" d="M11.3488 6.6377H6.38379V17.8502H11.3488C11.5855 17.849 11.8123 17.7546 11.9799 17.5874C12.1475 17.4202 12.2425 17.1937 12.2443 16.9569V7.53095C12.2425 7.2942 12.1475 7.06769 11.9799 6.90049C11.8123 6.73329 11.5855 6.63887 11.3488 6.6377Z" fill="black"/>
<path d="M2.3955 6.6377H11.349C11.5862 6.6375 11.8137 6.73147 11.9816 6.89897C12.1496 7.06647 12.2441 7.29378 12.2445 7.53095V16.4694C12.2441 16.7066 12.1496 16.9339 11.9816 17.1014C11.8137 17.2689 11.5862 17.3629 11.349 17.3627H2.3955C2.27798 17.3631 2.16154 17.3403 2.05286 17.2956C1.94418 17.2508 1.84541 17.1851 1.7622 17.1021C1.679 17.0191 1.613 16.9205 1.56801 16.8119C1.52301 16.7034 1.4999 16.587 1.5 16.4694V7.53095C1.4999 7.41343 1.52301 7.29705 1.56801 7.18848C1.613 7.07991 1.679 6.9813 1.7622 6.89831C1.84541 6.81531 1.94418 6.74957 2.05286 6.70485C2.16154 6.66012 2.27798 6.63731 2.3955 6.6377Z" fill="url(#paint0_linear_407_6209)"/>
<path d="M4.27539 14.9042L6.15864 11.9912L4.43364 9.09473H5.81889L6.76014 10.9495C6.84714 11.125 6.91014 11.2555 6.93864 11.3425H6.95139C7.01289 11.202 7.07789 11.0655 7.14639 10.933L8.15289 9.09773H9.42789L7.65864 11.9777L9.47289 14.9065H8.11614L7.02864 12.8732C6.97829 12.7857 6.93539 12.6942 6.90039 12.5995H6.88239C6.85061 12.6918 6.80833 12.7801 6.75639 12.8627L5.63664 14.9042H4.27539Z" fill="white"/>
<path d="M21.6043 2.25001H14.6855V7.125H22.4998V3.14325C22.4999 3.02573 22.4768 2.90935 22.4318 2.80079C22.3868 2.69222 22.3208 2.59361 22.2376 2.51061C22.1544 2.42762 22.0556 2.36187 21.9469 2.31715C21.8383 2.27243 21.7218 2.24961 21.6043 2.25001Z" fill="#33C481"/>
<path d="M14.6855 12H22.4998V16.875H14.6855V12Z" fill="#107C41"/>
<defs>
<linearGradient id="paint0_linear_407_6209" x1="3.3705" y1="5.9357" x2="10.374" y2="18.0647" gradientUnits="userSpaceOnUse">
<stop stop-color="#18884F"/>
<stop offset="0.5" stop-color="#117E43"/>
<stop offset="1" stop-color="#0B6631"/>
</linearGradient>
</defs>
</svg>
