<svg width="23" height="24" viewBox="0 0 23 24" fill="none" xmlns="http://www.w3.org/2000/svg">
<path d="M14.284 21.2801H11.4999C7.12519 21.2801 4.93783 21.2801 3.57878 19.9211C2.21973 18.562 2.21973 16.3746 2.21973 11.9999C2.21973 7.62519 2.21973 5.43783 3.57878 4.07878C4.93783 2.71973 7.12519 2.71973 11.4999 2.71973C15.8746 2.71973 18.062 2.71973 19.4211 4.07878C20.3247 4.98243 20.6275 6.25228 20.729 8.28784M14.284 21.2801C17.8717 21.2801 20.7801 18.3717 20.7801 14.784M14.284 21.2801C14.284 19.5528 14.284 18.6892 14.5111 17.9902C14.9701 16.5776 16.0776 15.4701 17.4902 15.0111C18.1892 14.784 19.0528 14.784 20.7801 14.784M20.7801 11.9999V14.784" stroke="white" stroke-width="1.39203" stroke-linecap="round"/>
</svg>
