<svg width="23" height="24" viewBox="0 0 23 24" fill="none" xmlns="http://www.w3.org/2000/svg">
<circle cx="5.00378" cy="5.50378" r="2.78406" stroke="white" stroke-width="1.39203"/>
<circle cx="17.996" cy="18.496" r="2.78406" stroke="white" stroke-width="1.39203"/>
<path d="M10.572 4.80789C10.1876 4.80789 9.87595 5.11951 9.87595 5.50391C9.87595 5.8883 10.1876 6.19992 10.572 6.19992V4.80789ZM12.428 18.4962L12.9202 18.9883C13.0507 18.8578 13.124 18.6808 13.124 18.4962C13.124 18.3116 13.0507 18.1345 12.9202 18.004L12.428 18.4962ZM16.3309 8.92581L16.7046 9.51301L16.3309 8.92581ZM6.66906 15.0743L7.04274 15.6615H7.04274L6.66906 15.0743ZM11.5281 16.612C11.2563 16.3402 10.8156 16.3402 10.5438 16.612C10.272 16.8838 10.272 17.3245 10.5438 17.5963L11.5281 16.612ZM10.5438 19.396C10.272 19.6679 10.272 20.1085 10.5438 20.3804C10.8156 20.6522 11.2563 20.6522 11.5281 20.3804L10.5438 19.396ZM10.0176 13.7683C10.3419 13.562 10.4375 13.1318 10.2312 12.8075C10.0248 12.4832 9.5946 12.3876 9.2703 12.5939L10.0176 13.7683ZM12.6138 10.4663C12.2895 10.6726 12.1939 11.1028 12.4002 11.4271C12.6066 11.7515 13.0368 11.8471 13.3611 11.6407L12.6138 10.4663ZM15.3345 4.80789H10.572V6.19992H15.3345V4.80789ZM12.428 17.8002H7.66552V19.1922H12.428V17.8002ZM12.9202 18.004L11.5281 16.612L10.5438 17.5963L11.9359 18.9883L12.9202 18.004ZM11.9359 18.004L10.5438 19.396L11.5281 20.3804L12.9202 18.9883L11.9359 18.004ZM7.66552 17.8002C6.50498 17.8002 6.06363 16.2845 7.04274 15.6615L6.29539 14.4871C4.14137 15.8578 5.11232 19.1922 7.66552 19.1922V17.8002ZM15.3345 6.19992C16.495 6.19992 16.9363 7.71554 15.9572 8.33861L16.7046 9.51301C18.8586 8.14227 17.8877 4.80789 15.3345 4.80789V6.19992ZM9.2703 12.5939L6.29539 14.4871L7.04274 15.6615L10.0176 13.7683L9.2703 12.5939ZM15.9572 8.33861L12.6138 10.4663L13.3611 11.6407L16.7046 9.51301L15.9572 8.33861Z" fill="white"/>
</svg>
