<svg width="23" height="24" viewBox="0 0 23 24" fill="none" xmlns="http://www.w3.org/2000/svg">
<path d="M8.71582 12.0743L10.5719 13.8561L14.2839 10.144" stroke="white" stroke-width="1.39203" stroke-linecap="round" stroke-linejoin="round"/>
<path d="M16.1402 3.96125C14.7752 3.17165 13.1904 2.71973 11.5001 2.71973C6.37477 2.71973 2.21989 6.87461 2.21989 11.9999C2.21989 13.4845 2.56847 14.8876 3.18824 16.1319C3.35294 16.4626 3.40776 16.8405 3.31228 17.1974L2.75954 19.2632C2.5196 20.16 3.34002 20.9804 4.2368 20.7405L6.3026 20.1877C6.65947 20.0922 7.03743 20.1471 7.3681 20.3118C8.61242 20.9315 10.0155 21.2801 11.5001 21.2801C16.6254 21.2801 20.7803 17.1252 20.7803 11.9999C20.7803 10.3096 20.3284 8.72482 19.5387 7.35982" stroke="white" stroke-width="1.39203" stroke-linecap="round"/>
</svg>
