<svg width="23" height="24" viewBox="0 0 23 24" fill="none" xmlns="http://www.w3.org/2000/svg">
<path d="M5.93164 15.5264L6.99226 16.6401L9.6438 13.856" stroke="white" stroke-width="1.39206" stroke-linecap="round" stroke-linejoin="round"/>
<path d="M5.93164 9.02985L6.99226 10.1435L9.6438 7.35938" stroke="white" stroke-width="1.39206" stroke-linecap="round" stroke-linejoin="round"/>
<path d="M12.4282 9.21582L17.0684 9.21582" stroke="white" stroke-width="1.39206" stroke-linecap="round"/>
<path d="M12.4282 15.7119L17.0684 15.7119" stroke="white" stroke-width="1.39206" stroke-linecap="round"/>
<path d="M20.7805 11.9996C20.7805 16.3745 20.7805 18.5619 19.4214 19.9209C18.0624 21.28 15.8749 21.28 11.5001 21.28C7.1253 21.28 4.93789 21.28 3.57881 19.9209C2.21973 18.5619 2.21973 16.3745 2.21973 11.9996C2.21973 7.62481 2.21973 5.4374 3.57881 4.07832C4.93789 2.71924 7.1253 2.71924 11.5001 2.71924C15.8749 2.71924 18.0624 2.71924 19.4214 4.07832C20.3251 4.98199 20.6279 6.25187 20.7294 8.28748" stroke="white" stroke-width="1.39206" stroke-linecap="round"/>
</svg>
