<svg width="23" height="24" viewBox="0 0 23 24" fill="none" xmlns="http://www.w3.org/2000/svg">
<path d="M13.356 21.28H9.64388C6.1441 21.28 4.39421 21.28 3.30697 20.1928C2.21973 19.1055 2.21973 17.3557 2.21973 13.8559V11.9998C2.21973 8.50006 2.21973 6.75017 3.30697 5.66293C4.39421 4.57568 6.1441 4.57568 9.64388 4.57568H13.356C16.8557 4.57568 18.6056 4.57568 19.6929 5.66293C20.7801 6.75017 20.7801 8.50006 20.7801 11.9998V13.8559C20.7801 17.3557 20.7801 19.1055 19.6929 20.1928C19.0867 20.799 18.2746 21.0672 17.068 21.1858" stroke="white" stroke-width="1.39203" stroke-linecap="round"/>
<path d="M6.85986 4.57562V3.18359" stroke="white" stroke-width="1.39203" stroke-linecap="round"/>
<path d="M16.1401 4.57562V3.18359" stroke="white" stroke-width="1.39203" stroke-linecap="round"/>
<path d="M20.3164 9.21582H15.7923H10.3402M2.22003 9.21582H5.81611" stroke="white" stroke-width="1.39203" stroke-linecap="round"/>
<path d="M17.068 16.6401C17.068 17.1526 16.6525 17.5681 16.1399 17.5681C15.6274 17.5681 15.2119 17.1526 15.2119 16.6401C15.2119 16.1276 15.6274 15.7121 16.1399 15.7121C16.6525 15.7121 17.068 16.1276 17.068 16.6401Z" fill="white"/>
<path d="M17.068 12.928C17.068 13.4406 16.6525 13.856 16.1399 13.856C15.6274 13.856 15.2119 13.4406 15.2119 12.928C15.2119 12.4155 15.6274 12 16.1399 12C16.6525 12 17.068 12.4155 17.068 12.928Z" fill="white"/>
<path d="M12.4278 16.6401C12.4278 17.1526 12.0123 17.5681 11.4998 17.5681C10.9873 17.5681 10.5718 17.1526 10.5718 16.6401C10.5718 16.1276 10.9873 15.7121 11.4998 15.7121C12.0123 15.7121 12.4278 16.1276 12.4278 16.6401Z" fill="white"/>
<path d="M12.4278 12.928C12.4278 13.4406 12.0123 13.856 11.4998 13.856C10.9873 13.856 10.5718 13.4406 10.5718 12.928C10.5718 12.4155 10.9873 12 11.4998 12C12.0123 12 12.4278 12.4155 12.4278 12.928Z" fill="white"/>
<path d="M7.78768 16.6401C7.78768 17.1526 7.37219 17.5681 6.85966 17.5681C6.34713 17.5681 5.93164 17.1526 5.93164 16.6401C5.93164 16.1276 6.34713 15.7121 6.85966 15.7121C7.37219 15.7121 7.78768 16.1276 7.78768 16.6401Z" fill="white"/>
<path d="M7.78768 12.928C7.78768 13.4406 7.37219 13.856 6.85966 13.856C6.34713 13.856 5.93164 13.4406 5.93164 12.928C5.93164 12.4155 6.34713 12 6.85966 12C7.37219 12 7.78768 12.4155 7.78768 12.928Z" fill="white"/>
</svg>
