<svg width="25" height="25" viewBox="0 0 25 25" fill="none" xmlns="http://www.w3.org/2000/svg">
<path fill-rule="evenodd" clip-rule="evenodd" d="M24.9177 12.3783C24.9177 19.2119 19.3779 24.7516 12.5443 24.7516C5.71065 24.7516 0.170898 19.2119 0.170898 12.3783C0.170898 5.54463 5.71065 0.00488281 12.5443 0.00488281C19.3779 0.00488281 24.9177 5.54463 24.9177 12.3783ZM17.5312 8.62872C17.8936 8.99113 17.8936 9.57871 17.5312 9.94112L11.3445 16.1278C10.9821 16.4902 10.3945 16.4902 10.0321 16.1278L7.5574 13.6531C7.19499 13.2907 7.19499 12.7031 7.5574 12.3407C7.91981 11.9783 8.50739 11.9783 8.8698 12.3407L10.6883 14.1592L13.4535 11.394L16.2188 8.62872C16.5812 8.26631 17.1688 8.26631 17.5312 8.62872Z" fill="#19C052"/>
</svg>
