<svg width="28" height="29" viewBox="0 0 28 29" fill="none" xmlns="http://www.w3.org/2000/svg">
<path d="M25.6668 14.6973H18.6668L16.3335 18.1973H11.6668L9.3335 14.6973H2.3335" stroke="#182D75" stroke-width="2.33333" stroke-linecap="round" stroke-linejoin="round"/>
<path d="M6.3585 6.65877L2.3335 14.6971V21.6971C2.3335 22.3159 2.57933 22.9094 3.01691 23.347C3.4545 23.7846 4.04799 24.0304 4.66683 24.0304H23.3335C23.9523 24.0304 24.5458 23.7846 24.9834 23.347C25.421 22.9094 25.6668 22.3159 25.6668 21.6971V14.6971L21.6418 6.65877C21.4487 6.27002 21.1509 5.94287 20.7819 5.7141C20.413 5.48532 19.9876 5.364 19.5535 5.36377H8.44683C8.01273 5.364 7.5873 5.48532 7.21838 5.7141C6.84946 5.94287 6.55167 6.27002 6.3585 6.65877V6.65877Z" stroke="#182D75" stroke-width="2.33333" stroke-linecap="round" stroke-linejoin="round"/>
</svg>
