<svg width="21" height="27" viewBox="0 0 21 27" fill="none" xmlns="http://www.w3.org/2000/svg">
<path d="M10.5229 20.3359C9.87962 20.3359 9.26265 20.0804 8.80775 19.6255C8.35285 19.1706 8.09729 18.5536 8.09729 17.9103C8.09729 16.564 9.17671 15.4846 10.5229 15.4846C11.1663 15.4846 11.7832 15.7402 12.2381 16.1951C12.693 16.65 12.9486 17.267 12.9486 17.9103C12.9486 18.5536 12.693 19.1706 12.2381 19.6255C11.7832 20.0804 11.1663 20.3359 10.5229 20.3359ZM17.7999 23.9744V11.8461H3.24597V23.9744H17.7999ZM17.7999 9.42047C18.4433 9.42047 19.0602 9.67603 19.5151 10.1309C19.97 10.5858 20.2256 11.2028 20.2256 11.8461V23.9744C20.2256 24.6178 19.97 25.2347 19.5151 25.6896C19.0602 26.1445 18.4433 26.4001 17.7999 26.4001H3.24597C2.60265 26.4001 1.98567 26.1445 1.53077 25.6896C1.07587 25.2347 0.820313 24.6178 0.820312 23.9744V11.8461C0.820312 10.4999 1.89973 9.42047 3.24597 9.42047H4.4588V6.99481C4.4588 5.3865 5.0977 3.84406 6.23495 2.70681C7.3722 1.56956 8.91464 0.930664 10.5229 0.930664C11.3193 0.930664 12.1079 1.08752 12.8436 1.39227C13.5793 1.69702 14.2478 2.1437 14.8109 2.70681C15.3741 3.26992 15.8207 3.93843 16.1255 4.67416C16.4302 5.4099 16.5871 6.19846 16.5871 6.99481V9.42047H17.7999ZM10.5229 3.35632C9.55796 3.35632 8.6325 3.73966 7.95015 4.42201C7.2678 5.10436 6.88446 6.02982 6.88446 6.99481V9.42047H14.1614V6.99481C14.1614 6.02982 13.7781 5.10436 13.0957 4.42201C12.4134 3.73966 11.4879 3.35632 10.5229 3.35632Z" fill="#474A69"/>
</svg>
