<svg width="28" height="29" viewBox="0 0 28 29" fill="none" xmlns="http://www.w3.org/2000/svg">
<path d="M14 4.19678H5.83333C5.21449 4.19678 4.621 4.44261 4.18342 4.88019C3.74583 5.31778 3.5 5.91127 3.5 6.53011V22.8634C3.5 23.4823 3.74583 24.0758 4.18342 24.5134C4.621 24.9509 5.21449 25.1968 5.83333 25.1968H22.1667C22.7855 25.1968 23.379 24.9509 23.8166 24.5134C24.2542 24.0758 24.5 23.4823 24.5 22.8634V14.6968" stroke="#182D75" stroke-width="2.33333" stroke-linecap="round" stroke-linejoin="round"/>
<path d="M20.6645 5.31032C21.1286 4.84619 21.7581 4.58545 22.4145 4.58545C23.0709 4.58545 23.7004 4.84619 24.1645 5.31032C24.6286 5.77445 24.8894 6.40395 24.8894 7.06032C24.8894 7.7167 24.6286 8.34619 24.1645 8.81032L13.6493 19.3267C13.3723 19.6034 13.0301 19.8061 12.6542 19.9158L9.30233 20.8958C9.20194 20.9251 9.09553 20.9269 8.99422 20.9009C8.89292 20.875 8.80046 20.8222 8.72652 20.7483C8.65257 20.6744 8.59987 20.5819 8.57391 20.4806C8.54796 20.3793 8.54972 20.2729 8.579 20.1725L9.559 16.8207C9.66928 16.445 9.87229 16.1032 10.1493 15.8267L20.6645 5.31032Z" stroke="#182D75" stroke-width="2.33333" stroke-linecap="round" stroke-linejoin="round"/>
</svg>
