<svg width="26" height="26" viewBox="0 0 26 26" fill="none" xmlns="http://www.w3.org/2000/svg">
<path d="M11.3399 11.1445H1.28076V23.9964L1.28411 23.9967C1.33266 24.7618 1.96834 25.3675 2.74575 25.3675C3.45191 25.3675 4.04123 24.8679 4.17981 24.2029L11.3399 24.7127V11.1445Z" fill="#96A9B2"/>
<path d="M24.1167 4.62157H24.0473L21.5285 2.446V3.62621L21.5291 4.62157H21.2492L20.5402 2.13812V1.03814C20.5402 0.921579 20.4939 0.809787 20.4115 0.727363C20.3291 0.644938 20.2173 0.598633 20.1007 0.598633H4.20229L4.21102 23.9023L4.21005 23.9033C4.20955 24.7119 3.55386 25.3673 2.74512 25.3673H23.0911C23.9002 25.3673 24.5561 24.7114 24.5561 23.9023V5.06109C24.5561 4.94453 24.5098 4.83275 24.4274 4.75032C24.345 4.6679 24.2332 4.62159 24.1167 4.62157Z" fill="#E5E4DF"/>
<path d="M21.9136 10.2005H6.82275V9.76098H21.9136V10.2005ZM21.9136 23.2303H6.82275V23.6698H21.9136V23.2303ZM9.02026 2.72656H6.8228V3.16607H9.02026V2.72656Z" fill="#96A9B2"/>
<path d="M14.7628 15.0997H6.82275V14.2207H14.7628V15.0997ZM14.7658 16.4182H6.82575V17.2971H14.7658V16.4182ZM14.7658 18.6156H6.82575V19.4946H14.7658V18.6156ZM14.7658 20.8131H6.82575V21.692H14.7658V20.8131ZM21.9166 20.8131H16.0843V21.692H21.9166V20.8131Z" fill="#BFBCAF"/>
<path d="M19.1285 4.6524V6.44087H19.1254C19.1095 6.66908 18.9213 6.84986 18.6891 6.84986H7.26227C7.03004 6.84986 6.8418 6.66908 6.82585 6.44087H6.82275V4.6524C6.82275 4.53584 6.86906 4.42405 6.95148 4.34162C7.03391 4.2592 7.1457 4.21289 7.26227 4.21289H18.6891C18.7468 4.21289 18.804 4.22426 18.8573 4.24635C18.9106 4.26844 18.9591 4.30081 18.9999 4.34163C19.0407 4.38244 19.073 4.43089 19.0951 4.48422C19.1172 4.53754 19.1285 4.59469 19.1285 4.6524ZM7.25191 12.9025H14.3367C14.393 12.9025 14.4488 12.8914 14.5009 12.8699C14.553 12.8483 14.6003 12.8167 14.6401 12.7768C14.68 12.737 14.7116 12.6897 14.7332 12.6376C14.7547 12.5855 14.7658 12.5297 14.7658 12.4734V11.5737C14.7658 11.5174 14.7547 11.4616 14.7332 11.4095C14.7116 11.3574 14.68 11.3101 14.6401 11.2703C14.6003 11.2304 14.553 11.1988 14.5009 11.1772C14.4488 11.1557 14.393 11.1446 14.3367 11.1446H7.25191C7.19555 11.1446 7.13974 11.1557 7.08767 11.1772C7.0356 11.1988 6.98829 11.2304 6.94844 11.2703C6.90858 11.3101 6.87697 11.3574 6.85541 11.4095C6.83384 11.4616 6.82275 11.5174 6.82275 11.5737V12.4734C6.82275 12.5297 6.83384 12.5855 6.85541 12.6376C6.87697 12.6897 6.90858 12.737 6.94844 12.7768C6.98829 12.8167 7.0356 12.8483 7.08767 12.8699C7.13974 12.8914 7.19555 12.9025 7.25191 12.9025ZM21.9166 11.5839C21.9165 11.4674 21.8702 11.3557 21.7878 11.2733C21.7054 11.1909 21.5936 11.1446 21.4771 11.1446L21.4764 11.1446L21.4763 11.1446H16.5227L16.5226 11.1446C16.4063 11.1449 16.2949 11.1914 16.2127 11.2737C16.1305 11.3561 16.0844 11.4676 16.0843 11.5839V19.0554C16.0843 19.1718 16.1305 19.2834 16.2126 19.3658C16.2948 19.4481 16.4063 19.4946 16.5226 19.4948L16.5227 19.4949H21.4763L21.4764 19.4948L21.4771 19.4949C21.5937 19.4949 21.7055 19.4486 21.7879 19.3662C21.8703 19.2837 21.9166 19.172 21.9166 19.0554L21.9166 11.5839Z" fill="#597B91"/>
<path d="M24.5101 4.8637H20.4375V0.759766L24.422 4.74421L24.5101 4.8637Z" fill="#BFBCAF"/>
</svg>
