<svg width="25" height="26" viewBox="0 0 25 26" fill="none" xmlns="http://www.w3.org/2000/svg">
<path fill-rule="evenodd" clip-rule="evenodd" d="M12.6086 0.200197H12.4799C11.3682 0.200162 10.4412 0.200133 9.70524 0.299077C8.92844 0.403514 8.22712 0.633251 7.66355 1.19682C7.09998 1.76039 6.87024 2.46172 6.7658 3.23851C6.66686 3.97445 6.66689 4.90148 6.66693 6.01319V6.10937C4.16604 6.1912 2.66428 6.48344 1.62053 7.52719C0.170898 8.97682 0.170898 11.31 0.170898 15.9763C0.170898 20.6426 0.170898 22.9757 1.62053 24.4253C3.07016 25.875 5.40331 25.875 10.0696 25.875H15.019C19.6853 25.875 22.0184 25.875 23.468 24.4253C24.9177 22.9757 24.9177 20.6426 24.9177 15.9763C24.9177 11.31 24.9177 8.97682 23.468 7.52719C22.4243 6.48344 20.9225 6.1912 18.4216 6.10937V6.01322C18.4217 4.90151 18.4217 3.97445 18.3228 3.23851C18.2183 2.46172 17.9886 1.76039 17.425 1.19682C16.8614 0.633251 16.1601 0.403514 15.3833 0.299077C14.6474 0.200133 13.7203 0.200162 12.6086 0.200197ZM16.5656 6.07989V6.07756C16.5656 4.88475 16.5637 4.0835 16.4833 3.48582C16.4065 2.91483 16.2739 2.67046 16.1126 2.50922C15.9514 2.34797 15.707 2.2153 15.136 2.13853C14.5383 2.05818 13.7371 2.05621 12.5443 2.05621C11.3515 2.05621 10.5502 2.05818 9.95255 2.13853C9.38156 2.2153 9.13719 2.34797 8.97594 2.50922C8.8147 2.67046 8.68203 2.91483 8.60526 3.48582C8.52491 4.0835 8.52293 4.88475 8.52293 6.07756V6.07989C9.00801 6.07755 9.52279 6.07755 10.0696 6.07755H15.019C15.5658 6.07755 16.0806 6.07755 16.5656 6.07989ZM18.731 9.78957C18.731 10.4729 18.177 11.0269 17.4936 11.0269C16.8103 11.0269 16.2563 10.4729 16.2563 9.78957C16.2563 9.10621 16.8103 8.55223 17.4936 8.55223C18.177 8.55223 18.731 9.10621 18.731 9.78957ZM7.59493 11.0269C8.27829 11.0269 8.83227 10.4729 8.83227 9.78957C8.83227 9.10621 8.27829 8.55223 7.59493 8.55223C6.91157 8.55223 6.35759 9.10621 6.35759 9.78957C6.35759 10.4729 6.91157 11.0269 7.59493 11.0269Z" fill="#A61FFF"/>
</svg>
