<svg width="26" height="29" viewBox="0 0 26 29" fill="none" xmlns="http://www.w3.org/2000/svg">
<path fill-rule="evenodd" clip-rule="evenodd" d="M13.0986 28.5579C19.8932 28.5579 25.4013 23.0498 25.4013 16.2552C25.4013 9.46061 19.8932 3.95251 13.0986 3.95251C6.30399 3.95251 0.795898 9.46061 0.795898 16.2552C0.795898 23.0498 6.30399 28.5579 13.0986 28.5579ZM13.0986 9.76211C13.6648 9.76211 14.1238 10.2211 14.1238 10.7873V16.2552C14.1238 16.8214 13.6648 17.2804 13.0986 17.2804C12.5324 17.2804 12.0734 16.8214 12.0734 16.2552V10.7873C12.0734 10.2211 12.5324 9.76211 13.0986 9.76211Z" fill="#5270D5"/>
<path fill-rule="evenodd" clip-rule="evenodd" d="M9.33942 1.21858C9.33942 0.652367 9.79843 0.193359 10.3646 0.193359H15.8325C16.3987 0.193359 16.8577 0.652367 16.8577 1.21858C16.8577 1.7848 16.3987 2.24381 15.8325 2.24381H10.3646C9.79843 2.24381 9.33942 1.7848 9.33942 1.21858Z" fill="#5270D5"/>
</svg>
