<svg width="26" height="26" viewBox="0 0 26 26" fill="none" xmlns="http://www.w3.org/2000/svg">
<path d="M12.6619 25.5962C10.9228 25.5962 9.29412 25.266 7.77581 24.6056C6.25749 23.9453 4.9358 23.0525 3.81074 21.9275C2.68569 20.8024 1.79297 19.4807 1.13259 17.9624C0.472208 16.4441 0.141554 14.815 0.140627 13.075C0.139699 11.335 0.470353 9.70628 1.13259 8.18889C1.79482 6.6715 2.68708 5.34981 3.80935 4.22383C4.93163 3.09784 6.25332 2.20512 7.77442 1.54567C9.29552 0.88622 10.9247 0.555566 12.6619 0.553711C14.5633 0.553711 16.3663 0.959492 18.0711 1.77105C19.7758 2.58262 21.219 3.7304 22.4006 5.2144V3.33621C22.4006 2.94202 22.5342 2.61183 22.8013 2.34564C23.0684 2.07945 23.3986 1.94589 23.7919 1.94496C24.1851 1.94403 24.5158 2.07759 24.7838 2.34564C25.0519 2.61369 25.185 2.94388 25.1831 3.33621V8.90121C25.1831 9.2954 25.0496 9.62605 24.7824 9.89317C24.5153 10.1603 24.1851 10.2934 23.7919 10.2925H18.2269C17.8327 10.2925 17.5025 10.1589 17.2363 9.89178C16.9701 9.62466 16.8366 9.29447 16.8356 8.90121C16.8347 8.50795 16.9683 8.17776 17.2363 7.91064C17.5044 7.64352 17.8345 7.50996 18.2269 7.50996H20.6616C19.7109 6.21146 18.5399 5.19121 17.1487 4.44921C15.7574 3.70721 14.2618 3.33621 12.6619 3.33621C9.94894 3.33621 7.64781 4.28133 5.75849 6.17158C3.86918 8.06182 2.92405 10.363 2.92313 13.075C2.9222 15.787 3.86732 18.0886 5.75849 19.9797C7.64967 21.8709 9.95079 22.8156 12.6619 22.8137C14.8647 22.8137 16.8356 22.1529 18.5747 20.8312C20.3138 19.5095 21.4615 17.8052 22.018 15.7183C22.134 15.3473 22.3427 15.0691 22.6441 14.8836C22.9455 14.6981 23.2818 14.6285 23.6528 14.6749C24.0469 14.7213 24.36 14.8892 24.5918 15.1785C24.8237 15.4679 24.8933 15.787 24.8005 16.1357C24.1281 18.895 22.6673 21.1618 20.4181 22.9361C18.1689 24.7104 15.5835 25.5971 12.6619 25.5962ZM14.0531 12.5185L17.5313 15.9966C17.7863 16.2516 17.9138 16.5763 17.9138 16.9705C17.9138 17.3646 17.7863 17.6893 17.5313 17.9443C17.2762 18.1994 16.9516 18.3269 16.5574 18.3269C16.1632 18.3269 15.8386 18.1994 15.5835 17.9443L11.688 14.0488C11.5489 13.9097 11.4445 13.7534 11.375 13.58C11.3054 13.4065 11.2706 13.2266 11.2706 13.0402V7.50996C11.2706 7.11577 11.4042 6.78558 11.6713 6.51939C11.9384 6.2532 12.2686 6.11964 12.6619 6.11871C13.0551 6.11778 13.3858 6.25134 13.6538 6.51939C13.9219 6.78744 14.055 7.11763 14.0531 7.50996V12.5185Z" fill="#474A69"/>
</svg>
