<svg width="20" height="21" viewBox="0 0 20 21" fill="none" xmlns="http://www.w3.org/2000/svg">
<path d="M10 20.25C8.64583 20.25 7.37761 19.9929 6.19533 19.4787C5.01306 18.9644 3.98389 18.2693 3.10784 17.3933C2.23178 16.5172 1.53664 15.488 1.02242 14.3057C0.508196 13.1235 0.250724 11.8549 0.250002 10.5C0.249279 9.14511 0.506752 7.87689 1.02242 6.69533C1.53808 5.51378 2.23286 4.48461 3.10675 3.60783C3.98064 2.73106 5.00981 2.03592 6.19425 1.52242C7.3787 1.00892 8.64728 0.751444 10 0.75C11.4806 0.75 12.8846 1.06597 14.212 1.69792C15.5394 2.32986 16.6632 3.22361 17.5833 4.37917V2.91667C17.5833 2.60972 17.6873 2.35261 17.8953 2.14533C18.1033 1.93806 18.3604 1.83406 18.6667 1.83333C18.9729 1.83261 19.2304 1.93661 19.4391 2.14533C19.6478 2.35406 19.7514 2.61117 19.75 2.91667V7.25C19.75 7.55694 19.646 7.81442 19.438 8.02242C19.23 8.23042 18.9729 8.33406 18.6667 8.33333H14.3333C14.0264 8.33333 13.7693 8.22933 13.562 8.02133C13.3547 7.81333 13.2507 7.55622 13.25 7.25C13.2493 6.94378 13.3533 6.68667 13.562 6.47867C13.7707 6.27067 14.0278 6.16667 14.3333 6.16667H16.2292C15.4889 5.15556 14.5771 4.36111 13.4938 3.78333C12.4104 3.20556 11.2458 2.91667 10 2.91667C7.8875 2.91667 6.09567 3.65261 4.6245 5.1245C3.15334 6.59639 2.41739 8.38822 2.41667 10.5C2.41595 12.6118 3.15189 14.404 4.6245 15.8766C6.09711 17.3492 7.88895 18.0848 10 18.0833C11.7153 18.0833 13.25 17.5688 14.6042 16.5396C15.9583 15.5104 16.8521 14.1833 17.2854 12.5583C17.3757 12.2694 17.5382 12.0528 17.7729 11.9083C18.0076 11.7639 18.2694 11.7097 18.5583 11.7458C18.8653 11.7819 19.109 11.9127 19.2896 12.138C19.4701 12.3633 19.5243 12.6118 19.4521 12.8833C18.9285 15.0319 17.791 16.7971 16.0396 18.1787C14.2882 19.5603 12.275 20.2507 10 20.25ZM11.0833 10.0667L13.7917 12.775C13.9903 12.9736 14.0896 13.2264 14.0896 13.5333C14.0896 13.8403 13.9903 14.0931 13.7917 14.2917C13.5931 14.4903 13.3403 14.5896 13.0333 14.5896C12.7264 14.5896 12.4736 14.4903 12.275 14.2917L9.24167 11.2583C9.13334 11.15 9.05208 11.0283 8.99792 10.8933C8.94375 10.7582 8.91667 10.6181 8.91667 10.4729V6.16667C8.91667 5.85972 9.02067 5.60261 9.22867 5.39533C9.43667 5.18806 9.69378 5.08406 10 5.08333C10.3062 5.08261 10.5637 5.18661 10.7724 5.39533C10.9811 5.60406 11.0848 5.86117 11.0833 6.16667V10.0667Z" fill="white"/>
</svg>
