<svg width="28" height="29" viewBox="0 0 28 29" fill="none" xmlns="http://www.w3.org/2000/svg">
<path d="M23.3333 3.03076H4.66659C3.37792 3.03076 2.33325 4.07543 2.33325 5.3641V10.0308C2.33325 11.3194 3.37792 12.3641 4.66659 12.3641H23.3333C24.6219 12.3641 25.6666 11.3194 25.6666 10.0308V5.3641C25.6666 4.07543 24.6219 3.03076 23.3333 3.03076Z" stroke="#182D75" stroke-width="2.33333" stroke-linecap="round" stroke-linejoin="round"/>
<path d="M23.3333 17.0308H4.66659C3.37792 17.0308 2.33325 18.0754 2.33325 19.3641V24.0308C2.33325 25.3194 3.37792 26.3641 4.66659 26.3641H23.3333C24.6219 26.3641 25.6666 25.3194 25.6666 24.0308V19.3641C25.6666 18.0754 24.6219 17.0308 23.3333 17.0308Z" stroke="#182D75" stroke-width="2.33333" stroke-linecap="round" stroke-linejoin="round"/>
<path d="M7 7.69727H7.01167" stroke="#182D75" stroke-width="2.33333" stroke-linecap="round" stroke-linejoin="round"/>
<path d="M7 21.6973H7.01167" stroke="#182D75" stroke-width="2.33333" stroke-linecap="round" stroke-linejoin="round"/>
</svg>
