<svg width="25" height="26" viewBox="0 0 25 26" fill="none" xmlns="http://www.w3.org/2000/svg">
<path d="M21.4327 8.06479L17.7644 4.39285C15.2567 1.88272 14.0028 0.627649 12.6562 0.924752C11.3095 1.22185 10.6989 2.88825 9.47778 6.22103L8.65128 8.47674C8.32573 9.36524 8.16296 9.80948 7.8701 10.1531C7.73869 10.3073 7.58918 10.4451 7.4248 10.5634C7.05847 10.8271 6.60272 10.9528 5.69122 11.2041C3.63677 11.7705 2.60954 12.0536 2.22245 12.7257C2.05511 13.0163 1.96803 13.3462 1.97015 13.6816C1.97505 14.4573 2.72845 15.2115 4.23526 16.7197L5.98558 18.4722L0.447382 24.0156C0.0787374 24.3846 0.0787374 24.9829 0.447382 25.3519C0.816025 25.7209 1.41372 25.7209 1.78236 25.3519L7.32074 19.8083L9.13469 21.624C10.6511 23.1418 11.4093 23.9008 12.1896 23.9019C12.5185 23.9024 12.8418 23.8169 13.1275 23.6539C13.8054 23.267 14.0901 22.2322 14.6596 20.1627C14.9099 19.2528 15.0351 18.7978 15.2979 18.4317C15.4129 18.2713 15.5464 18.1251 15.6955 17.996C16.0361 17.701 16.4775 17.5352 17.3603 17.2035L19.6419 16.3463C22.938 15.1079 24.586 14.4887 24.8764 13.1457C25.1668 11.8026 23.9221 10.5566 21.4327 8.06479Z" fill="#FFB82E"/>
</svg>
