<svg width="25" height="26" viewBox="0 0 25 26" fill="none" xmlns="http://www.w3.org/2000/svg">
<path fill-rule="evenodd" clip-rule="evenodd" d="M24.9177 13.1312C24.9177 6.29756 19.3779 0.757812 12.5443 0.757812C5.71065 0.757812 0.170898 6.29756 0.170898 13.1312C0.170898 19.9648 5.71065 25.5046 12.5443 25.5046C19.3779 25.5046 24.9177 19.9648 24.9177 13.1312ZM12.5443 6.0165C13.0568 6.0165 13.4723 6.43198 13.4723 6.9445V14.3685C13.4723 14.8811 13.0568 15.2965 12.5443 15.2965C12.0318 15.2965 11.6163 14.8811 11.6163 14.3685V6.9445C11.6163 6.43198 12.0318 6.0165 12.5443 6.0165ZM12.5443 19.3179C13.2276 19.3179 13.7816 18.7639 13.7816 18.0805C13.7816 17.3972 13.2276 16.8432 12.5443 16.8432C11.8609 16.8432 11.3069 17.3972 11.3069 18.0805C11.3069 18.7639 11.8609 19.3179 12.5443 19.3179Z" fill="#D62828"/>
</svg>
